<?xml version="1.0" standalone="no"?>
<!DOCTYPE svg PUBLIC "-//W3C//DTD SVG 20010904//EN"
 "http://www.w3.org/TR/2001/REC-SVG-20010904/DTD/svg10.dtd">
<svg version="1.0" xmlns="http://www.w3.org/2000/svg"
 width="2000.000000pt" height="1492.000000pt" viewBox="0 0 2000.000000 1492.000000"
 preserveAspectRatio="xMidYMid meet">
<metadata>
Created by potrace 1.16, written by Peter Selinger 2001-2019
</metadata>
<g transform="translate(0.000000,1492.000000) scale(0.100000,-0.100000)"
fill="#000000" stroke="none">
<path d="M18905 14916 c-5 -2 -44 -12 -85 -21 -120 -27 -243 -92 -326 -172
-95 -91 -134 -150 -179 -270 -49 -129 -60 -211 -59 -433 1 -188 3 -213 27
-303 95 -356 324 -541 717 -578 140 -14 321 -1 445 31 239 61 415 215 499 439
49 128 56 180 56 426 0 272 -11 332 -89 490 -92 184 -229 298 -438 361 -83 26
-101 28 -323 30 -129 2 -239 2 -245 0z"/>
<path d="M0 8970 l0 -5840 710 0 710 0 0 78 c0 42 -5 214 -10 382 -5 168 -12
397 -15 510 -3 113 -10 340 -15 505 -6 165 -10 348 -10 408 0 101 1 107 20
107 11 0 22 -6 24 -13 2 -6 20 -82 41 -167 141 -592 467 -1110 905 -1439 352
-264 790 -441 1271 -511 230 -34 407 -43 709 -37 361 8 561 32 855 102 771
185 1356 621 1742 1295 283 495 440 1068 505 1840 15 173 19 2186 6 2427 -38
663 -179 1267 -408 1738 -103 212 -256 450 -396 616 -37 44 -260 267 -299 299
-275 227 -571 388 -907 494 -607 191 -1440 217 -2078 64 -366 -87 -684 -235
-990 -462 -114 -84 -342 -310 -425 -421 -225 -300 -411 -690 -496 -1037 -21
-88 -26 -98 -46 -98 -13 0 -23 6 -24 13 -3 64 20 1390 26 1532 3 55 8 855 11
1778 l6 1677 -711 0 -711 0 0 -5840z m4115 1769 c300 -29 556 -99 790 -214
200 -98 321 -184 467 -329 160 -159 262 -303 368 -521 141 -287 219 -587 262
-1005 19 -179 19 -2240 0 -2420 -58 -561 -178 -941 -406 -1280 -311 -463 -791
-730 -1446 -806 -198 -22 -606 -15 -795 14 -746 116 -1292 460 -1632 1027
-137 229 -248 546 -297 849 -9 50 -21 125 -28 166 -9 55 -13 418 -15 1388 -4
1309 -4 1312 17 1385 156 534 489 1009 930 1324 485 346 1092 490 1785 422z"/>
<path d="M12210 11929 c-631 -32 -1315 -178 -1865 -398 -286 -114 -670 -298
-867 -414 l-72 -43 -68 -609 c-36 -335 -65 -611 -63 -613 2 -2 56 27 122 63
140 79 519 266 653 322 749 315 1250 441 1935 484 235 14 660 7 845 -16 658
-80 1095 -299 1376 -690 225 -315 353 -804 342 -1315 l-3 -144 -1375 -197
c-756 -108 -1418 -204 -1470 -213 -513 -92 -920 -203 -1289 -350 -211 -84
-460 -215 -615 -324 -148 -103 -313 -254 -406 -372 -192 -242 -330 -549 -394
-878 -46 -235 -51 -303 -51 -752 0 -353 3 -447 18 -555 71 -512 245 -903 556
-1248 91 -100 341 -292 481 -370 432 -237 936 -347 1596 -347 437 0 774 40
1117 135 383 105 790 332 1076 600 332 310 608 797 732 1293 21 82 26 92 46
92 22 0 23 -4 23 -77 0 -43 -9 -364 -20 -713 -11 -349 -22 -751 -26 -893 l-7
-257 712 0 711 0 -3 3003 c-4 3271 0 3037 -57 3381 -98 581 -275 1014 -569
1391 -78 100 -301 320 -401 394 -329 247 -741 428 -1192 526 -447 96 -979 132
-1528 104z m2340 -5243 l0 -805 -41 -118 c-175 -501 -504 -927 -931 -1204
-124 -80 -388 -210 -518 -254 -340 -117 -649 -160 -1085 -152 -338 7 -505 30
-730 104 -393 128 -679 400 -799 757 -63 188 -70 253 -71 591 0 266 3 323 19
400 102 486 401 778 996 975 130 42 377 104 540 134 74 13 434 68 800 120 366
53 908 132 1205 175 297 43 557 79 578 80 l37 1 0 -804z"/>
<path d="M18407 7133 c-3 -5059 1 -4684 -62 -4966 -149 -665 -468 -940 -1148
-989 -373 -28 -782 36 -1121 173 -66 27 -120 48 -121 46 -1 -1 8 -101 22 -222
13 -121 41 -386 62 -589 27 -259 43 -371 52 -377 37 -22 291 -95 489 -138 252
-56 335 -64 724 -68 385 -5 496 1 716 38 402 68 739 209 1000 418 455 365 691
874 797 1721 16 125 17 496 20 4843 l3 4707 -715 0 -715 0 -3 -4597z"/>
</g>
</svg>
